<?xml version="1.0" encoding="UTF-8" standalone="no"?>
<!-- Created for ondemiroir-audio-tag by dascritch.net -->
<svg id="svg3100" xmlns:rdf="http://www.w3.org/1999/02/22-rdf-syntax-ns#" xmlns="http://www.w3.org/2000/svg" height="32" width="32" version="1.1" xmlns:cc="http://creativecommons.org/ns#" xmlns:dc="http://purl.org/dc/elements/1.1/" >
	<metadata id="metadata3105">
		<rdf:RDF>
			<cc:Work rdf:about="">
				<dc:format>image/svg+xml</dc:format>
				<dc:type rdf:resource="http://purl.org/dc/dcmitype/StillImage"/>
				<dc:title/>
			</cc:Work>
		</rdf:RDF>
	</metadata>
  <style>
    [id] {visibility : hidden}
    [id]:target {visibility : visible}
  </style>
<g>
    <path id="linkedin"
       style="fill:#ffffff"
       d="m 11.595306,23.980946 -3.5398666,0 0,-11.171026 3.5398666,0 z M 9.8253735,11.214058 c -0.9775812,0 -1.7699341,-0.714424 -1.7699341,-1.5958604 0,-0.8814358 0.7923529,-1.5958625 1.7699341,-1.5958625 0.9775815,0 1.7699325,0.7144267 1.7699325,1.5958625 0,0.8814364 -0.792351,1.5958604 -1.7699325,1.5958604 z m 14.1594745,12.766888 -3.53987,0 0,-6.383442 c 0,-0.881439 -0.792352,-1.595864 -1.769934,-1.595864 -0.977581,0 -1.769933,0.714425 -1.769933,1.595864 l 0,6.383442 -3.53987,0 0,-11.171026 3.53987,0 0,1.981732 c 0.729935,-0.904102 1.846221,-1.981732 3.097457,-1.981732 2.199629,0 3.982568,1.786321 3.982568,3.989521 l -2.88e-4,7.181505 z" />
    <path id="facebook"
       style="fill:#ffffff"
       d="m 21.117629,16.002801 -3.728536,0 0,10.027032 -4.297299,0 0,-10.027032 -2.070889,0 0,-3.280447 2.070889,0 0,-2.130525 c 0,-2.8948013 1.248613,-4.6162935 4.652543,-4.6162935 l 3.922408,0 0,3.5491602 -3.203737,0 c -0.950901,-0.00164 -1.06877,0.4957973 -1.06877,1.4214413 l -0.0054,1.775983 4.297531,0 -0.568528,3.280447 0,2.34e-4 z" />
    <path id="twitter"
       style="fill:#ffffff"
       d="M 25.941079,9.8850467 C 25.221736,10.205818 24.44893,10.42266 23.637623,10.520208 24.465487,10.020897 25.101446,9.2303364 25.401271,8.2881678 24.626273,8.7505746 23.768087,9.0861086 22.854245,9.2672412 22.122732,8.483065 21.080224,7.9931292 19.9266,7.9931292 c -2.215082,0 -4.011048,1.806139 -4.011048,4.0341888 0,0.316184 0.03531,0.623991 0.103732,0.919428 -3.333398,-0.168564 -6.288772,-1.77442 -8.267066,-4.2153221 -0.34511,0.5960619 -0.542999,1.2890731 -0.542999,2.0283651 0,1.399788 0.708172,2.634801 1.784395,3.358135 -0.657504,-0.02075 -1.276107,-0.202279 -1.816513,-0.504498 -3.98e-4,0.01695 -3.98e-4,0.03392 -3.98e-4,0.05087 0,1.954757 1.382631,3.585149 3.217497,3.955992 -0.336731,0.09236 -0.690818,0.141635 -1.056674,0.141635 -0.258532,0 -0.509684,-0.02534 -0.754652,-0.07241 0.510483,1.602664 1.991661,2.769254 3.746731,2.801771 -1.372657,1.082007 -3.102195,1.726943 -4.981345,1.726943 -0.323764,0 -0.64294,-0.01914 -0.956731,-0.05625 1.775019,1.144648 3.883378,1.812723 6.148134,1.812723 7.377364,0 11.41175,-6.147535 11.41175,-11.478977 0,-0.174949 -0.004,-0.348701 -0.01177,-0.522053 0.783578,-0.569131 1.463623,-1.279897 2.001436,-2.0886101 z" />
    <path id="email"
       style="fill:#ffffff"
       d="m 8.03005,8.9982493 15.92083,0 c 0.284,0 0.55985,0.053866 0.81295,0.1552927 l -8.77336,9.025894 -8.77334,-9.0261803 c 0.25309,-0.1014274 0.52895,-0.1552928 0.81292,-0.1550064 z m -1.9901,12.2844627 0,-10.529539 c 0,-0.03667 0.002,-0.07335 0.004,-0.109737 l 5.83549,6.003413 -5.77115,5.089421 c -0.0451,-0.146411 -0.0686,-0.298551 -0.0691,-0.453558 z m 17.91093,1.754923 -15.92083,0 c -0.17578,0 -0.34831,-0.02092 -0.51433,-0.06074 l 5.66294,-4.993723 2.81181,2.892973 2.81149,-2.892687 5.66296,4.993724 c -0.16572,0.03954 -0.33826,0.06045 -0.51404,0.06045 z m 1.99012,-1.754923 c 0,0.155007 -0.0237,0.307147 -0.0686,0.453558 l -5.77115,-5.089421 5.83547,-6.003413 c 0.002,0.03639 0.004,0.07306 0.004,0.109737 z" />
    <path id="flattr"
       style="fill:#ffffff"
       d="m 13.47911,6.9840248 c -4.26057,0 -6.43541,2.4662131 -6.43541,7.0703002 l 0,0 v 9.659686 l 4.17368,-4.198536 v -4.906688 c 0,-1.90734 0.50308,-3.121236 2.19075,-3.393686 l 0,0 c 0.58944,-0.115819 1.81644,-0.07537 2.59652,-0.07537 l 0,0 v 2.913311 c 0,0.02648 0.004,0.07409 0.0104,0.09836 l 0,0 c 0.0327,0.118024 0.13886,0.204247 0.26454,0.204611 l 0,0 c 0.0712,1.86e-4 0.13775,-0.03694 0.20635,-0.104973 l 0,0 7.23303,-7.2657201 -10.23988,-0.00129 0,0 z m 7.31919,5.4848652 v 4.906687 c 0,1.907341 -0.50309,3.121419 -2.19055,3.393687 l 0,0 c -0.58945,0.115818 -1.81645,0.07537 -2.59671,0.07537 l 0,0 v -2.913311 c 0,-0.02628 -0.004,-0.07409 -0.0105,-0.09818 l 0,0 c -0.0326,-0.118025 -0.13889,-0.20443 -0.26456,-0.204613 l 0,0 c -0.0711,-1.85e-4 -0.13776,0.03713 -0.20636,0.104972 l 0,0 -7.23286,7.265722 10.24008,9.76e-4 c 4.26057,0 6.43522,-2.466212 6.43522,-7.070117 l 0,0 V 8.2707208 l -4.17385,4.1981692 0,0 z" />
    <g transform="matrix(0.23794793,0,0,0.23525828,0,0)">
      <g id="googleplus">
        <path
           style="fill:#ffffff"
           d="m 70.479,71.845 -3.983,-3.093 c -1.213,-1.006 -2.872,-2.334 -2.872,-4.765 0,-2.441 1.659,-3.993 3.099,-5.43 4.64,-3.652 9.276,-7.539 9.276,-15.73 0,-8.423 -5.3,-12.854 -7.84,-14.956 h 6.849 l 7.189,-4.517 H 60.418 c -5.976,0 -14.588,1.414 -20.893,6.619 -4.752,4.1 -7.07,9.753 -7.07,14.842 0,8.639 6.633,17.396 18.346,17.396 1.106,0 2.316,-0.109 3.534,-0.222 -0.547,1.331 -1.1,2.439 -1.1,4.32 0,3.431 1.763,5.535 3.317,7.528 -4.977,0.342 -14.268,0.893 -21.117,5.103 -6.523,3.879 -8.508,9.525 -8.508,13.51 0,8.202 7.731,15.842 23.762,15.842 19.01,0 29.074,-10.519 29.074,-20.932 10e-4,-7.651 -4.419,-11.417 -9.284,-15.515 z M 56,59.107 c -9.51,0 -13.818,-12.294 -13.818,-19.712 0,-2.888 0.547,-5.87 2.428,-8.199 1.773,-2.218 4.861,-3.657 7.744,-3.657 9.168,0 13.923,12.404 13.923,20.382 0,1.996 -0.22,5.533 -2.762,8.09 -1.778,1.774 -4.753,3.096 -7.515,3.096 z m 0.109,44.543 c -11.826,0 -19.452,-5.657 -19.452,-13.523 0,-7.864 7.071,-10.524 9.504,-11.405 4.64,-1.561 10.611,-1.779 11.607,-1.779 1.105,0 1.658,0 2.538,0.111 8.407,5.983 12.056,8.965 12.056,14.629 0,6.859 -5.639,11.967 -16.253,11.967 z" />
        <polygon
           style="fill:#ffffff"
           points="92.923,47.863 92.923,58.938 81.866,58.938 81.866,64.469 92.923,64.469 92.923,75.612 98.393,75.612 98.393,64.469 109.506,64.469 109.506,58.938 98.393,58.938 98.393,47.863 " />
      </g>
    </g>
    <path id="github"
       style="fill:#ffffff"
       d="m 15.97323,6.1346038 c -5.44241,0 -9.85435,4.4119382 -9.85435,9.8543612 0,5.442424 4.41194,9.854361 9.85435,9.854361 5.44243,0 9.85437,-4.411937 9.85437,-9.854361 0,-5.442423 -4.41194,-9.8543612 -9.85437,-9.8543612 z m 5.85209,15.7064442 c -0.76059,0.760595 -1.64588,1.357489 -2.63112,1.774388 -0.25038,0.105784 -0.50457,0.198898 -0.7622,0.278939 v -1.476948 c 0,-0.776282 -0.26627,-1.347231 -0.7988,-1.712848 0.33363,-0.03218 0.63992,-0.07703 0.91906,-0.134743 0.27914,-0.05772 0.57417,-0.14118 0.88529,-0.250382 0.31112,-0.109202 0.59025,-0.239119 0.83721,-0.38975 0.24697,-0.150832 0.48448,-0.346512 0.71213,-0.587038 0.22766,-0.240528 0.41872,-0.513231 0.57257,-0.817912 0.15385,-0.304682 0.27591,-0.670499 0.36562,-1.097052 0.0897,-0.426554 0.13473,-0.896547 0.13473,-1.409778 0,-0.994485 -0.32398,-1.841156 -0.97196,-2.540615 0.29503,-0.769846 0.26305,-1.607065 -0.0961,-2.511655 l -0.24073,-0.02876 c -0.16672,-0.01931 -0.46677,0.05128 -0.89976,0.211767 -0.43299,0.160486 -0.91907,0.423336 -1.45785,0.789155 -0.7636,-0.211769 -1.55577,-0.317552 -2.3771,-0.317552 -0.82757,0 -1.61672,0.105783 -2.36746,0.317552 -0.33988,-0.231075 -0.66245,-0.421727 -0.96714,-0.572559 -0.30468,-0.150832 -0.54843,-0.253398 -0.73143,-0.3081 -0.18281,-0.0545 -0.35275,-0.08829 -0.51002,-0.101158 -0.15727,-0.01287 -0.25823,-0.01589 -0.30307,-0.0097 -0.0449,0.0062 -0.0771,0.01287 -0.0961,0.01931 -0.35937,0.911025 -0.39134,1.748445 -0.0961,2.511655 -0.64798,0.699257 -0.97197,1.546129 -0.97197,2.540615 0,0.513232 0.0449,0.983224 0.13476,1.409777 0.0899,0.426553 0.21176,0.792371 0.36561,1.097052 0.15385,0.304681 0.3449,0.577386 0.57256,0.817913 0.22765,0.240526 0.46516,0.436205 0.71212,0.587038 0.24697,0.151033 0.52611,0.280748 0.83722,0.389749 0.31112,0.109203 0.60615,0.192462 0.88528,0.250382 0.27914,0.05772 0.58544,0.102767 0.91908,0.134743 -0.52611,0.359382 -0.78916,0.930333 -0.78916,1.712849 v 1.505706 c -0.2906,-0.08648 -0.57698,-0.18864 -0.85833,-0.307698 -0.98524,-0.416899 -1.87052,-1.013792 -2.63112,-1.774388 -0.76059,-0.760595 -1.35748,-1.645879 -1.77439,-2.631114 -0.43097,-1.019223 -0.64958,-2.1028 -0.64958,-3.220968 0,-1.118169 0.21861,-2.201747 0.64978,-3.220969 0.41691,-0.985235 1.0138,-1.870519 1.77439,-2.631114 0.7606,-0.760596 1.64589,-1.3574887 2.63111,-1.7743886 1.01924,-0.4311785 2.10281,-0.6497844 3.22097,-0.6497844 1.11818,0 2.20175,0.2186059 3.22097,0.6497844 0.98544,0.4168999 1.87053,1.0137926 2.63112,1.7743886 0.76059,0.760595 1.35749,1.645879 1.77439,2.631114 0.43098,1.019424 0.64958,2.103001 0.64958,3.220969 0,1.117967 -0.2186,2.201745 -0.64979,3.220968 -0.41689,0.985235 -1.01378,1.870519 -1.77418,2.631114 l 0,0 z" />
  </g>
</svg>
