<?xml version="1.0" encoding="UTF-8" standalone="no"?>
<!-- Created for ondemiroir-audio-tag by dascritch.net -->
<svg xmlns:rdf="http://www.w3.org/1999/02/22-rdf-syntax-ns#" xmlns="http://www.w3.org/2000/svg" height="32" width="32" version="1.1" xmlns:cc="http://creativecommons.org/ns#" xmlns:dc="http://purl.org/dc/elements/1.1/">
<metadata>
  <rdf:RDF>
    <cc:Work rdf:about="">
      <dc:format>image/svg+xml</dc:format>
      <dc:type rdf:resource="http://purl.org/dc/dcmitype/StillImage"/>
      <dc:title/>
    </cc:Work>
  </rdf:RDF>
</metadata>
<style>
  g, path, polygon {fill : #ffffff}
  [id] {visibility : hidden}
  [id]:target {visibility : visible}
</style>
<!-- Note s/(\d\.\d{4})(\d+)/\1/g  style="background-color : #ccc"  -->
<!-- standard network services -->
<path id="email"
  d="m 8.030,8.998 15.920,0 c 0.284,0 0.559,0.053 0.812,0.155 l -8.773,9.025 -8.773,-9.026 c 0.253,-0.101 0.528,-0.155 0.812,-0.155 z m -1.990,12.284 0,-10.529 c 0,-0.036 0.002,-0.073 0.004,-0.109 l 5.835,6.003 -5.771,5.089 c -0.045,-0.146 -0.068,-0.298 -0.069,-0.453 z m 17.910,1.754 -15.920,0 c -0.175,0 -0.348,-0.020 -0.514,-0.060 l 5.662,-4.993 2.811,2.892 2.811,-2.892 5.662,4.993 c -0.165,0.039 -0.338,0.060 -0.514,0.060 z m 1.990,-1.754 c 0,0.155 -0.023,0.307 -0.068,0.453 l -5.771,-5.089 5.835,-6.003 c 0.002,0.036 0.004,0.073 0.004,0.109 z" />
<g id="share" transform="matrix(0.042,0,0,0.042,5.914,6)">
  <path
  d="m 385.513,301.214 c -27.438,0 -51.64,13.072 -67.452,33.09 l -146.66,-75.002 c 1.92,-7.161 3.3,-14.56 3.3,-22.347 0,-8.477 -1.639,-16.458 -3.926,-24.224 l 146.013,-74.656 c 15.725,20.924 40.553,34.6 68.746,34.6 47.758,0 86.391,-38.633 86.391,-86.348 C 471.926,38.655 433.292,0 385.535,0 c -47.65,0 -86.326,38.655 -86.326,86.326 0,7.809 1.381,15.229 3.322,22.412 L 155.892,183.74 c -15.833,-20.039 -40.079,-33.154 -67.56,-33.154 -47.715,0 -86.326,38.676 -86.326,86.369 0,47.693 38.612,86.348 86.326,86.348 28.236,0 53.043,-13.719 68.832,-34.664 l 145.948,74.656 c -2.287,7.744 -3.947,15.79 -3.947,24.289 0,47.693 38.676,86.348 86.326,86.348 47.758,0 86.391,-38.655 86.391,-86.348 0.022,-47.736 -38.611,-86.37 -86.369,-86.37 z" />
</g>
<!-- social networks -->
<path id="linkedin"
  d="m 11.595,23.980 -3.539,0 0,-11.171 3.539,0 z M 9.825,11.214 c -0.977,0 -1.769,-0.714 -1.769,-1.595 0,-0.881 0.792,-1.595 1.769,-1.595 0.977,0 1.769,0.714 1.769,1.595 0,0.881 -0.792,1.595 -1.769,1.595 z m 14.159,12.766 -3.539,0 0,-6.383 c 0,-0.881 -0.792,-1.595 -1.769,-1.595 -0.977,0 -1.769,0.714 -1.769,1.595 l 0,6.383 -3.539,0 0,-11.171 3.539,0 0,1.981 c 0.729,-0.904 1.846,-1.981 3.097,-1.981 2.199,0 3.982,1.786 3.982,3.989 l -2.88e-4,7.181 z" />
<path id="facebook"
  d="m 21.117,16.002 -3.728,0 0,10.027 -4.297,0 0,-10.027 -2.070,0 0,-3.280 2.070,0 0,-2.130 c 0,-2.894 1.248,-4.616 4.652,-4.616 l 3.922,0 0,3.549 -3.203,0 c -0.950,-0.001 -1.068,0.495 -1.068,1.421 l -0.005,1.775 4.297,0 -0.568,3.280 0,2.34e-4 z" />
<path id="twitter"
  d="M 25.941,9.885 C 25.221,10.205 24.448,10.422 23.637,10.520 24.465,10.020 25.101,9.230 25.401,8.288 24.626,8.750 23.768,9.086 22.854,9.267 22.122,8.483 21.080,7.993 19.926,7.993 c -2.215,0 -4.011,1.806 -4.011,4.034 0,0.316 0.035,0.623 0.103,0.919 -3.333,-0.168 -6.288,-1.774 -8.267,-4.215 -0.345,0.596 -0.542,1.289 -0.542,2.028 0,1.399 0.708,2.634 1.784,3.358 -0.657,-0.020 -1.276,-0.202 -1.816,-0.504 -3.98e-4,0.016 -3.98e-4,0.033 -3.98e-4,0.050 0,1.954 1.382,3.585 3.217,3.955 -0.336,0.092 -0.690,0.141 -1.056,0.141 -0.258,0 -0.509,-0.025 -0.754,-0.072 0.510,1.602 1.991,2.769 3.746,2.801 -1.372,1.082 -3.102,1.726 -4.981,1.726 -0.323,0 -0.642,-0.019 -0.956,-0.056 1.775,1.144 3.883,1.812 6.148,1.812 7.377,0 11.411,-6.147 11.411,-11.478 0,-0.174 -0.004,-0.348 -0.011,-0.522 0.783,-0.569 1.463,-1.279 2.001,-2.088 z" />
<g transform="matrix(0.237,0,0,0.235,0,0)" id="googleplus">
  <path
    d="m 70.479,71.845 -3.983,-3.093 c -1.213,-1.006 -2.872,-2.334 -2.872,-4.765 0,-2.441 1.659,-3.993 3.099,-5.43 4.64,-3.652 9.276,-7.539 9.276,-15.73 0,-8.423 -5.3,-12.854 -7.84,-14.956 h 6.849 l 7.189,-4.517 H 60.418 c -5.976,0 -14.588,1.414 -20.893,6.619 -4.752,4.1 -7.07,9.753 -7.07,14.842 0,8.639 6.633,17.396 18.346,17.396 1.106,0 2.316,-0.109 3.534,-0.222 -0.547,1.331 -1.1,2.439 -1.1,4.32 0,3.431 1.763,5.535 3.317,7.528 -4.977,0.342 -14.268,0.893 -21.117,5.103 -6.523,3.879 -8.508,9.525 -8.508,13.51 0,8.202 7.731,15.842 23.762,15.842 19.01,0 29.074,-10.519 29.074,-20.932 10e-4,-7.651 -4.419,-11.417 -9.284,-15.515 z M 56,59.107 c -9.51,0 -13.818,-12.294 -13.818,-19.712 0,-2.888 0.547,-5.87 2.428,-8.199 1.773,-2.218 4.861,-3.657 7.744,-3.657 9.168,0 13.923,12.404 13.923,20.382 0,1.996 -0.22,5.533 -2.762,8.09 -1.778,1.774 -4.753,3.096 -7.515,3.096 z m 0.109,44.543 c -11.826,0 -19.452,-5.657 -19.452,-13.523 0,-7.864 7.071,-10.524 9.504,-11.405 4.64,-1.561 10.611,-1.779 11.607,-1.779 1.105,0 1.658,0 2.538,0.111 8.407,5.983 12.056,8.965 12.056,14.629 0,6.859 -5.639,11.967 -16.253,11.967 z" />
  <polygon points="92.923,47.863 92.923,58.938 81.866,58.938 81.866,64.469 92.923,64.469 92.923,75.612 98.393,75.612 98.393,64.469 109.506,64.469 109.506,58.938 98.393,58.938 98.393,47.863 " />
</g>
<!-- granting providers -->
<path id="flattr"
  d="m 13.479,6.984 c -4.260,0 -6.435,2.466 -6.435,7.070 l 0,0 v 9.659 l 4.173,-4.198 v -4.906 c 0,-1.907 0.503,-3.121 2.190,-3.393 l 0,0 c 0.589,-0.115 1.816,-0.075 2.596,-0.075 l 0,0 v 2.913 c 0,0.026 0.004,0.074 0.010,0.098 l 0,0 c 0.032,0.118 0.138,0.204 0.264,0.204 l 0,0 c 0.071,1.86e-4 0.137,-0.036 0.206,-0.104 l 0,0 7.233,-7.265 -10.239,-0.001 0,0 z m 7.319,5.484 v 4.906 c 0,1.907 -0.503,3.121 -2.190,3.393 l 0,0 c -0.589,0.115 -1.816,0.075 -2.596,0.075 l 0,0 v -2.913 c 0,-0.026 -0.004,-0.074 -0.010,-0.098 l 0,0 c -0.032,-0.118 -0.138,-0.204 -0.264,-0.204 l 0,0 c -0.071,-1.85e-4 -0.137,0.037 -0.206,0.104 l 0,0 -7.232,7.265 10.240,9.76e-4 c 4.260,0 6.435,-2.466 6.435,-7.070 l 0,0 V 8.270 l -4.173,4.198 0,0 z" />
<!-- media buttons -->
<path id="play"
  d="M 6,6 6,20 20,13 z" />
<path id="stop"
  d="M 6,6 6,20 20,20 20,6 z" />
<g id="pause">
  <path d="M 6,6 10.666,6 10.666,20 6,20 z" />
  <path d="M 15.333,6 20,6 20,20 15.333,20 z" />
</g>
<g id="playlist">
</g>
<!-- code sharing -->
<path id="github"
  d="m 15.973,6.134 c -5.442,0 -9.854,4.411 -9.854,9.854 0,5.442 4.411,9.854 9.854,9.854 5.442,0 9.854,-4.411 9.854,-9.854 0,-5.442 -4.411,-9.854 -9.854,-9.854 z m 5.852,15.706 c -0.760,0.760 -1.645,1.357 -2.631,1.774 -0.250,0.105 -0.504,0.198 -0.762,0.278 v -1.476 c 0,-0.776 -0.266,-1.347 -0.798,-1.712 0.333,-0.032 0.639,-0.077 0.919,-0.134 0.279,-0.057 0.574,-0.141 0.885,-0.250 0.311,-0.109 0.590,-0.239 0.837,-0.389 0.246,-0.150 0.484,-0.346 0.712,-0.587 0.227,-0.240 0.418,-0.513 0.572,-0.817 0.153,-0.304 0.275,-0.670 0.365,-1.097 0.089,-0.426 0.134,-0.896 0.134,-1.409 0,-0.994 -0.323,-1.841 -0.971,-2.540 0.295,-0.769 0.263,-1.607 -0.096,-2.511 l -0.240,-0.028 c -0.166,-0.019 -0.466,0.051 -0.899,0.211 -0.432,0.160 -0.919,0.423 -1.457,0.789 -0.763,-0.211 -1.555,-0.317 -2.377,-0.317 -0.827,0 -1.616,0.105 -2.367,0.317 -0.339,-0.231 -0.662,-0.421 -0.967,-0.572 -0.304,-0.150 -0.548,-0.253 -0.731,-0.308 -0.182,-0.054 -0.352,-0.088 -0.510,-0.101 -0.157,-0.012 -0.258,-0.015 -0.303,-0.009 -0.044,0.006 -0.077,0.012 -0.096,0.019 -0.359,0.911 -0.391,1.748 -0.096,2.511 -0.647,0.699 -0.971,1.546 -0.971,2.540 0,0.513 0.044,0.983 0.134,1.409 0.089,0.426 0.211,0.792 0.365,1.097 0.153,0.304 0.344,0.577 0.572,0.817 0.227,0.240 0.465,0.436 0.712,0.587 0.246,0.151 0.526,0.280 0.837,0.389 0.311,0.109 0.606,0.192 0.885,0.250 0.279,0.057 0.585,0.102 0.919,0.134 -0.526,0.359 -0.789,0.930 -0.789,1.712 v 1.505 c -0.290,-0.086 -0.576,-0.188 -0.858,-0.307 -0.985,-0.416 -1.870,-1.013 -2.631,-1.774 -0.760,-0.760 -1.357,-1.645 -1.774,-2.631 -0.430,-1.019 -0.649,-2.102 -0.649,-3.220 0,-1.118 0.218,-2.201 0.649,-3.220 0.416,-0.985 1.013,-1.870 1.774,-2.631 0.760,-0.760 1.645,-1.357 2.631,-1.774 1.019,-0.431 2.102,-0.649 3.220,-0.649 1.118,0 2.201,0.218 3.220,0.649 0.985,0.416 1.870,1.013 2.631,1.774 0.760,0.760 1.357,1.645 1.774,2.631 0.430,1.019 0.649,2.103 0.649,3.220 0,1.117 -0.218,2.201 -0.649,3.220 -0.416,0.985 -1.013,1.870 -1.774,2.631 l 0,0 z" />
</svg>
