<?xml version="1.0" encoding="UTF-8" standalone="no"?>
<!-- Created for ondemiroir-audio-tag by dascritch.net -->
<svg xmlns:rdf="http://www.w3.org/1999/02/22-rdf-syntax-ns#" xmlns="http://www.w3.org/2000/svg" height="320" width="320" version="1.1" xmlns:cc="http://creativecommons.org/ns#" xmlns:dc="http://purl.org/dc/elements/1.1/">
<metadata>
  <rdf:RDF>
    <cc:Work rdf:about="">
      <dc:format>image/svg+xml</dc:format>
      <dc:type rdf:resource="http://purl.org/dc/dcmitype/StillImage"/>
      <dc:title/>
    </cc:Work>
  </rdf:RDF>
</metadata>
<style>
  g, path, polygon, circle {fill : #ffffff}
</style>
<!-- Note s/(\d\.\d{4})(\d+)/\1/g  style="background-color : #ccc"  -->
<!-- standard network services -->
<path id="email"
  d="m 8.030,8.998 15.920,0 c 0.284,0 0.559,0.053 0.812,0.155 l -8.773,9.025 -8.773,-9.026 c 0.253,-0.101 0.528,-0.155 0.812,-0.155 z m -1.990,12.284 0,-10.529 c 0,-0.036 0.002,-0.073 0.004,-0.109 l 5.835,6.003 -5.771,5.089 c -0.045,-0.146 -0.068,-0.298 -0.069,-0.453 z m 17.910,1.754 -15.920,0 c -0.175,0 -0.348,-0.020 -0.514,-0.060 l 5.662,-4.993 2.811,2.892 2.811,-2.892 5.662,4.993 c -0.165,0.039 -0.338,0.060 -0.514,0.060 z m 1.990,-1.754 c 0,0.155 -0.023,0.307 -0.068,0.453 l -5.771,-5.089 5.835,-6.003 c 0.002,0.036 0.004,0.073 0.004,0.109 z" />
<g id="share" >
  <circle cx="44" cy="10" r="4" />
  <circle cx="44" cy="22" r="4" />
  <circle cx="55" cy="16" r="4" />
  <polygon points="44,8 56,14 56,18 44,12"/>
  <polygon points="44,20 56,14 56,18 44,24"/>
</g>
<!-- social networks -->
<path id="linkedin"
  d="m 11.595,55.980 -3.539,0 0,-11.171 3.539,0 z M 9.825,43.214 c -0.977,0 -1.769,-0.714 -1.769,-1.595 0,-0.881 0.792,-1.595 1.769,-1.595 0.977,0 1.769,0.714 1.769,1.595 0,0.881 -0.792,1.595 -1.769,1.595 z m 14.159,12.766 -3.539,0 0,-6.383 c 0,-0.881 -0.792,-1.595 -1.769,-1.595 -0.977,0 -1.769,0.714 -1.769,1.595 l 0,6.383 -3.539,0 0,-11.171 3.539,0 0,1.981 c 0.729,-0.904 1.846,-1.981 3.097,-1.981 2.199,0 3.982,1.786 3.982,3.989 l 0,7.181 z" />
<path id="facebook"
  d="m 53.117,48.002 -3.728,0 0,10.027 -4.297,0 0,-10.027 -2.070,0 0,-3.280 2.070,0 0,-2.130 c 0,-2.894 1.248,-4.616 4.652,-4.616 l 3.922,0 0,3.549 -3.203,0 c -0.950,-0.001 -1.068,0.495 -1.068,1.421 l -0.005,1.775 4.297,0 -0.568,3.280 0,0 z" />
<path id="twitter"
  d="m121.94,41.885c-0.72,0.32-1.493,0.537-2.304,0.635,0.828-0.5,1.464-1.29,1.764-2.232-0.775,0.462-1.633,0.798-2.547,0.979-0.732-0.784-1.774-1.274-2.928-1.274-2.215,0-4.011,1.806-4.011,4.034,0,0.316,0.035,0.623,0.103,0.919-3.333-0.168-6.288-1.774-8.267-4.215-0.345,0.596-0.542,1.289-0.542,2.028,0,1.399,0.708,2.634,1.784,3.358-0.657-0.02-1.276-0.202-1.816-0.504v0.05c0,1.954,1.382,3.585,3.217,3.955-0.336,0.092-0.69,0.141-1.056,0.141-0.258,0-0.509-0.025-0.754-0.072,0.51,1.602,1.991,2.769,3.746,2.801-1.372,1.082-3.102,1.726-4.981,1.726-0.323,0-0.642-0.019-0.956-0.056,1.775,1.144,3.883,1.812,6.148,1.812,7.377,0,11.411-6.147,11.411-11.478,0-0.174-0.004-0.348-0.011-0.522,0.783-0.569,1.463-1.279,2.001-2.088z" />
<g id="googleplus">
  <path  d="M80.704,48.884,79.76,48.157c-0.28748-0.23641-0.68066-0.54849-0.68066-1.1198,0-0.57364,0.39318-0.93836,0.73446-1.276,1.0997-0.85822,2.1984-1.7717,2.1984-3.6966,0-1.9794-1.2561-3.0207-1.8581-3.5147h1.6232l1.705-1.06h-5.1616c-1.4163,0-3.4574,0.33229-4.9516,1.5555-1.1262,0.9635-1.6756,2.292-1.6756,3.4879,0,2.0302,1.572,4.0881,4.348,4.0881,0.26212,0,0.54889-0.02562,0.83756-0.05217-0.12964,0.31278-0.2607,0.57316-0.2607,1.0152,0,0.80628,0.41783,1.3007,0.78613,1.7691-1.1795,0.08037-3.3815,0.20986-5.0047,1.1992-1.546,0.91156-2.0164,2.2384-2.0164,3.1748,0,1.9275,1.8322,3.7229,5.6316,3.7229,4.5054,0,6.8905-2.472,6.8905-4.919,0-1.798-1.0473-2.683-2.2003-3.646zm-3.4315-2.9934c-2.2539,0-3.2749-2.8891-3.2749-4.6323,0-0.67868,0.12964-1.3794,0.57544-1.9268,0.4202-0.52123,1.1521-0.8594,1.8353-0.8594,2.1728,0,3.2998,2.9149,3.2998,4.7898,0,0.46906-0.05214,1.3003-0.65459,1.9012-0.42139,0.41689-1.1265,0.72756-1.7811,0.72756zm0.02583,10.468c-2.8028,0-4.6101-1.3294-4.6101-3.1779,0-1.848,1.6758-2.4731,2.2524-2.6802,1.0997-0.36684,2.5148-0.41806,2.7509-0.41806,0.26188,0,0.39295,0,0.60151,0.02608,1.9925,1.406,2.8573,2.1068,2.8573,3.4378,0,1.6119-1.3364,2.8122-3.852,2.8122z" />
  <polygon  points="86.04,49.78 87.33,49.78 87.33,47.03 89.94,47.03 89.94,45.86 87.33,45.86 87.33,43.23 86.04,43.23 86.04,45.86 83.40,45.86 83.40,47.03 86.04,47.03"/>
</g>
<!-- granting providers -->
<path id="flattr"
  d="m 13.479,70.984 c -4.260,0 -6.435,2.466 -6.435,7.070 l 0,0 v 9.659 l 4.173,-4.198 v -4.906 c 0,-1.907 0.503,-3.121 2.190,-3.393 l 0,0 c 0.589,-0.115 1.816,-0.075 2.596,-0.075 l 0,0 v 2.913 c 0,0.026 0.004,0.074 0.010,0.098 l 0,0 c 0.032,0.118 0.138,0.204 0.264,0.204 l 0,0 c 0.071,0 0.137,-0.036 0.206,-0.104 l 0,0 7.233,-7.265 -10.239,-0.001 0,0 z m 7.319,5.484 v 4.906 c 0,1.907 -0.503,3.121 -2.190,3.393 l 0,0 c -0.589,0.115 -1.816,0.075 -2.596,0.075 l 0,0 v -2.913 c 0,-0.026 -0.004,-0.074 -0.010,-0.098 l 0,0 c -0.032,-0.118 -0.138,-0.204 -0.264,-0.204 l 0,0 c -0.071,0 -0.137,0.037 -0.206,0.104 l 0,0 -7.232,7.265 10.240,0 c 4.260,0 6.435,-2.466 6.435,-7.070 l 0,0 V 72.270 l -4.173,4.198 0,0 z" />
<!-- media buttons -->
<path id="play"
  d="M 6,102 6,122 26,112 z" />
<path id="stop"
  d="M 42,102 42,122 62,122 62,102 z" />
<g id="pause">
  <path d="M 70,102 76.667,102 76.667,122 70,122 z" />
  <path d="M 83.333,102 90,102 90,122 83.333,122 z" />
</g>
<g id="playlist">
</g>
<!-- code sharing -->
<path id="github"
  d="m 15.973,134.134 c -5.442,0 -9.854,4.411 -9.854,9.854 0,5.442 4.411,9.854 9.854,9.854 5.442,0 9.854,-4.411 9.854,-9.854 0,-5.442 -4.411,-9.854 -9.854,-9.854 z m 5.852,15.706 c -0.760,0.760 -1.645,1.357 -2.631,1.774 -0.250,0.105 -0.504,0.198 -0.762,0.278 v -1.476 c 0,-0.776 -0.266,-1.347 -0.798,-1.712 0.333,-0.032 0.639,-0.077 0.919,-0.134 0.279,-0.057 0.574,-0.141 0.885,-0.250 0.311,-0.109 0.590,-0.239 0.837,-0.389 0.246,-0.150 0.484,-0.346 0.712,-0.587 0.227,-0.240 0.418,-0.513 0.572,-0.817 0.153,-0.304 0.275,-0.670 0.365,-1.097 0.089,-0.426 0.134,-0.896 0.134,-1.409 0,-0.994 -0.323,-1.841 -0.971,-2.540 0.295,-0.769 0.263,-1.607 -0.096,-2.511 l -0.240,-0.028 c -0.166,-0.019 -0.466,0.051 -0.899,0.211 -0.432,0.160 -0.919,0.423 -1.457,0.789 -0.763,-0.211 -1.555,-0.317 -2.377,-0.317 -0.827,0 -1.616,0.105 -2.367,0.317 -0.339,-0.231 -0.662,-0.421 -0.967,-0.572 -0.304,-0.150 -0.548,-0.253 -0.731,-0.308 -0.182,-0.054 -0.352,-0.088 -0.510,-0.101 -0.157,-0.012 -0.258,-0.015 -0.303,-0.009 -0.044,0.006 -0.077,0.012 -0.096,0.019 -0.359,0.911 -0.391,1.748 -0.096,2.511 -0.647,0.699 -0.971,1.546 -0.971,2.540 0,0.513 0.044,0.983 0.134,1.409 0.089,0.426 0.211,0.792 0.365,1.097 0.153,0.304 0.344,0.577 0.572,0.817 0.227,0.240 0.465,0.436 0.712,0.587 0.246,0.151 0.526,0.280 0.837,0.389 0.311,0.109 0.606,0.192 0.885,0.250 0.279,0.057 0.585,0.102 0.919,0.134 -0.526,0.359 -0.789,0.930 -0.789,1.712 v 1.505 c -0.290,-0.086 -0.576,-0.188 -0.858,-0.307 -0.985,-0.416 -1.870,-1.013 -2.631,-1.774 -0.760,-0.760 -1.357,-1.645 -1.774,-2.631 -0.430,-1.019 -0.649,-2.102 -0.649,-3.220 0,-1.118 0.218,-2.201 0.649,-3.220 0.416,-0.985 1.013,-1.870 1.774,-2.631 0.760,-0.760 1.645,-1.357 2.631,-1.774 1.019,-0.431 2.102,-0.649 3.220,-0.649 1.118,0 2.201,0.218 3.220,0.649 0.985,0.416 1.870,1.013 2.631,1.774 0.760,0.760 1.357,1.645 1.774,2.631 0.430,1.019 0.649,2.103 0.649,3.220 0,1.117 -0.218,2.201 -0.649,3.220 -0.416,0.985 -1.013,1.870 -1.774,2.631 l 0,0 z" />
</svg>
